<svg width="64" height="64" viewBox="0 0 64 64" fill="none" xmlns="http://www.w3.org/2000/svg">
<path d="M28.238 10.6446C29.5234 10.1739 30.8903 9.96669 32.2574 10.0354C33.6246 10.1041 34.964 10.4472 36.1957 11.0444C37.4274 11.6416 38.5264 12.4806 39.427 13.5114C40.3276 14.5423 41.0115 15.7439 41.438 17.0446" stroke="#655030" stroke-width="2" stroke-miterlimit="10" stroke-linecap="round"/>
<path d="M43.838 11.4446C46.2249 10.039 49.0725 9.63913 51.7542 10.333C54.436 11.0269 56.7324 12.7577 58.138 15.1447C59.5437 17.5316 59.9435 20.3792 59.2496 23.0609C58.5557 25.7427 56.8249 28.039 54.438 29.4447C52.799 30.3944 50.9318 30.8785 49.0379 30.8447H14.638C12.1837 30.9311 9.78047 30.1291 7.86996 28.5859C5.95944 27.0428 4.66986 24.8622 4.238 22.4446C3.94612 21.1172 3.92245 19.7449 4.16842 18.4082C4.41439 17.0715 4.92497 15.7975 5.67025 14.661C6.41553 13.5244 7.38053 12.5482 8.50838 11.7898C9.63623 11.0314 10.9043 10.5061 12.238 10.2446C14.9673 9.71166 17.7968 10.2726 20.1164 11.8065C22.436 13.3405 24.0599 15.7245 24.638 18.4446" stroke="#655030" stroke-width="2" stroke-linecap="round" stroke-linejoin="round"/>
<path d="M57.6379 26.8447V50.8447C57.6379 51.9055 57.2165 52.923 56.4663 53.6731C55.7162 54.4232 54.6988 54.8447 53.6379 54.8447H9.83789C8.77702 54.8447 7.75967 54.4232 7.00952 53.6731C6.25938 52.923 5.83789 51.9055 5.83789 50.8447V26.8447" stroke="#655030" stroke-width="2" stroke-linecap="round" stroke-linejoin="round"/>
</svg>
