<svg width="64" height="64" viewBox="0 0 64 64" fill="none" xmlns="http://www.w3.org/2000/svg">
<path d="M58.2 34.8001C57.4332 41.5988 54.1326 47.8588 48.9558 52.3322C43.7791 56.8057 37.1065 59.1639 30.2685 58.9368C23.4305 58.7098 16.9292 55.914 12.0607 51.1069C7.19213 46.2999 4.31398 39.8347 4 33.0001C4.03394 31.5924 4.16763 30.1889 4.40002 28.8001C4.52543 30.8051 5.33308 32.7068 6.68878 34.1893C8.04448 35.6719 9.86658 36.6459 11.8524 36.9496C13.8383 37.2533 15.8682 36.8684 17.605 35.8588C19.3419 34.8493 20.6811 33.2759 21.4 31.4C21.6224 30.9635 21.7581 30.4882 21.8 30.0001C22.4193 27.79 23.7948 25.8674 25.6865 24.5676C27.5781 23.2677 29.866 22.6731 32.1512 22.8873C34.4364 23.1016 36.5739 24.1111 38.191 25.7399C39.8081 27.3687 40.8022 29.5134 41 31.8001V33.6001C41.2494 35.7384 42.2916 37.7055 43.921 39.1126C45.5503 40.5198 47.6482 41.2646 49.8 41.2C51.7125 41.2192 53.5767 40.6003 55.098 39.4412C56.6193 38.2821 57.7108 36.649 58.2 34.8001Z" stroke="#655030" stroke-width="2" stroke-linecap="round" stroke-linejoin="round"/>
<path d="M40.9999 33.0001V33.6001C40.8966 36.1292 39.8187 38.5203 37.9919 40.2725C36.1651 42.0248 33.7312 43.0022 31.2 43.0001C28.5478 43.0001 26.0042 41.9465 24.1288 40.0711C22.2535 38.1958 21.2 35.6522 21.2 33.0001C21.2 32.4001 21.4 32 21.4 31.4C21.6223 30.9635 21.7581 30.4882 21.7999 30.0001C22.4193 27.79 23.7947 25.8674 25.6864 24.5676C27.5781 23.2677 29.8659 22.6731 32.1511 22.8873C34.4363 23.1016 36.5738 24.1111 38.1909 25.7399C39.808 27.3687 40.8022 29.5134 40.9999 31.8001V33.0001Z" stroke="#655030" stroke-width="2" stroke-linecap="round" stroke-linejoin="round"/>
<path d="M58.1998 33V34.8C57.7107 36.649 56.6192 38.282 55.0979 39.4411C53.5766 40.6002 51.7124 41.2191 49.7999 41.2C47.6481 41.2645 45.5502 40.5197 43.9208 39.1126C42.2915 37.7054 41.2492 35.7384 40.9999 33.6V31.8C40.8021 29.5133 39.808 27.3686 38.1909 25.7398C36.5737 24.111 34.4363 23.1015 32.1511 22.8873C29.8659 22.6731 27.578 23.2677 25.6863 24.5675C23.7947 25.8674 22.4192 27.79 21.7999 30C21.5999 30.4 21.5999 31 21.3999 31.4C20.681 33.2759 19.3418 34.8493 17.6049 35.8588C15.8681 36.8683 13.8381 37.2533 11.8523 36.9496C9.86646 36.6458 8.04436 35.6718 6.68866 34.1893C5.33296 32.7068 4.52531 30.805 4.3999 28.8C4.61601 27.3092 4.9504 25.8378 5.3999 24.4C7.26449 19.0383 10.7483 14.388 15.3701 11.0919C19.9918 7.79577 25.5232 6.01656 31.1999 6.00003C37.7442 5.99008 44.0694 8.35733 48.999 12.6616C53.9287 16.9659 57.1273 22.9141 57.9999 29.4C58.1658 30.5924 58.2327 31.7966 58.1998 33Z" stroke="#655030" stroke-width="2" stroke-linecap="round" stroke-linejoin="round"/>
<path d="M13.8 28.4L16.2001 25.6" stroke="#655030" stroke-width="2" stroke-linecap="round" stroke-linejoin="round"/>
<path d="M23.4001 19.8L20.6001 17.6" stroke="#655030" stroke-width="2" stroke-linecap="round" stroke-linejoin="round"/>
<path d="M45.4001 20.4L42.6001 18.2" stroke="#655030" stroke-width="2" stroke-linecap="round" stroke-linejoin="round"/>
<path d="M31.3999 16.2L33.5999 13.4" stroke="#655030" stroke-width="2" stroke-linecap="round" stroke-linejoin="round"/>
<path d="M48.6001 30.4L51.0001 27.6" stroke="#655030" stroke-width="2" stroke-linecap="round" stroke-linejoin="round"/>
</svg>
