<svg width="64" height="64" viewBox="0 0 64 64" fill="none" xmlns="http://www.w3.org/2000/svg">
<path d="M12.6001 20.8H49.4001V44.2C49.4001 46.693 48.4098 49.084 46.647 50.8468C44.8841 52.6096 42.4932 53.6 40.0001 53.6H22.0001C19.5071 53.6 17.1162 52.6096 15.3534 50.8468C13.5906 49.084 12.6001 46.693 12.6001 44.2V20.8Z" stroke="#655030" stroke-width="2" stroke-linecap="round" stroke-linejoin="round"/>
<path d="M6 53.6H55.6C55.6 55.2974 54.9257 56.9252 53.7255 58.1255C52.5252 59.3257 50.8975 60 49.2001 60H12.6C10.9026 60 9.27482 59.3257 8.07458 58.1255C6.87435 56.9252 6.20007 55.2974 6.20007 53.6H6Z" stroke="#655030" stroke-width="2" stroke-linecap="round" stroke-linejoin="round"/>
<path d="M18.6001 13.8V6.40002" stroke="#655030" stroke-width="2" stroke-linecap="round" stroke-linejoin="round"/>
<path d="M43 14V6.40002" stroke="#655030" stroke-width="2" stroke-linecap="round" stroke-linejoin="round"/>
<path d="M30.8003 11V4" stroke="#655030" stroke-width="2" stroke-linecap="round" stroke-linejoin="round"/>
<path d="M49.3979 25.2H59V32.6C59 35.1991 57.9675 37.6917 56.1297 39.5296C54.2918 41.3675 51.9972 42.3899 49.398 42.3899L49.3979 25.2Z" stroke="#655030" stroke-width="2" stroke-linecap="round" stroke-linejoin="round"/>
</svg>
