<svg width="47" height="41" viewBox="0 0 47 41" fill="none" xmlns="http://www.w3.org/2000/svg">
<mask id="path-1-inside-1_1233_383" fill="white">
<path d="M38.5448 13.9266C38.4512 13.8277 38.334 13.7481 38.2015 13.6935C38.069 13.6388 37.9245 13.6105 37.7783 13.6105H10.6753L9.81561 9.43972C9.71822 8.96739 9.43546 8.54015 9.0167 8.23257C8.59794 7.92499 8.06976 7.75659 7.52433 7.75676H4.52305C4.25845 7.75676 4.00469 7.84927 3.8176 8.01394C3.6305 8.17861 3.52539 8.40195 3.52539 8.63482C3.52539 8.8677 3.6305 9.09104 3.8176 9.25571C4.00469 9.42038 4.25845 9.51289 4.52305 9.51289H7.51602C7.59476 9.51176 7.67141 9.53526 7.7323 9.57921C7.7932 9.62316 7.8344 9.68471 7.84857 9.75289L12.0903 30.285C12.2248 30.9399 12.5874 31.5419 13.1278 32.0074C12.4753 32.4668 11.9879 33.0829 11.7248 33.7809C11.4618 34.479 11.4342 35.2292 11.6455 35.9408C11.8567 36.6524 12.2978 37.2949 12.9153 37.7904C13.5328 38.286 14.3002 38.6134 15.1247 38.7331C15.9492 38.8528 16.7955 38.7595 17.5611 38.4647C18.3266 38.1699 18.9787 37.6862 19.4384 37.072C19.8981 36.4578 20.1457 35.7395 20.1513 35.004C20.1568 34.2686 19.92 33.5474 19.4696 32.9279H28.1525C27.6355 33.64 27.4026 34.4833 27.4904 35.3248C27.5782 36.1663 27.9819 36.9582 28.6376 37.5754C29.2934 38.1927 30.1639 38.6003 31.112 38.7339C32.0601 38.8675 33.0317 38.7195 33.8736 38.3133C34.7156 37.907 35.3799 37.2657 35.7619 36.4904C36.1438 35.7151 36.2216 34.8499 35.9831 34.0314C35.7445 33.2128 35.2031 32.4875 34.4443 31.9697C33.6855 31.4519 32.7525 31.1712 31.7923 31.1718H15.6918C15.3024 31.1719 14.9253 31.0516 14.6263 30.8321C14.3273 30.6125 14.1254 30.3075 14.0557 29.9703L13.4571 27.0742H33.1392C33.9959 27.0744 34.8255 26.8099 35.4834 26.3269C36.1412 25.8439 36.5856 25.173 36.739 24.4312L38.7593 14.6452C38.7854 14.5189 38.7797 14.3891 38.7426 14.265C38.7056 14.1408 38.638 14.0253 38.5448 13.9266ZM18.1577 34.9768C18.1577 35.382 18.0212 35.7781 17.7654 36.115C17.5096 36.452 17.146 36.7146 16.7207 36.8696C16.2953 37.0247 15.8272 37.0653 15.3757 36.9862C14.9241 36.9072 14.5093 36.712 14.1838 36.4255C13.8582 36.139 13.6365 35.7739 13.5467 35.3765C13.4569 34.979 13.503 34.5671 13.6792 34.1927C13.8553 33.8183 14.1537 33.4984 14.5365 33.2732C14.9193 33.0481 15.3694 32.9279 15.8298 32.9279C16.4472 32.9279 17.0393 33.1438 17.4759 33.528C17.9124 33.9123 18.1577 34.4334 18.1577 34.9768ZM34.1202 34.9768C34.1202 35.382 33.9837 35.7781 33.7279 36.115C33.4721 36.452 33.1085 36.7146 32.6832 36.8696C32.2578 37.0247 31.7897 37.0653 31.3382 36.9862C30.8866 36.9072 30.4718 36.712 30.1463 36.4255C29.8207 36.139 29.599 35.7739 29.5092 35.3765C29.4194 34.979 29.4655 34.5671 29.6417 34.1927C29.8178 33.8183 30.1162 33.4984 30.499 33.2732C30.8818 33.0481 31.3319 32.9279 31.7923 32.9279C32.4097 32.9279 33.0018 33.1438 33.4384 33.528C33.8749 33.9123 34.1202 34.4334 34.1202 34.9768ZM34.7753 24.1166C34.7056 24.4538 34.5037 24.7587 34.2046 24.9783C33.9056 25.1979 33.5286 25.3181 33.1392 25.3181H13.0946L11.0394 15.3667H36.5827L34.7753 24.1166Z"/>
</mask>
<path d="M38.5448 13.9266L42.179 10.4926L42.1764 10.4898L38.5448 13.9266ZM37.7783 13.6105L37.7784 8.61052H37.7783V13.6105ZM10.6753 13.6105L5.7782 14.6199L6.60071 18.6105H10.6753V13.6105ZM9.81561 9.43972L14.7127 8.43038L14.7126 8.42993L9.81561 9.43972ZM7.52433 7.75676V12.7568L7.52591 12.7568L7.52433 7.75676ZM4.52305 9.51289V14.5129V9.51289ZM7.51602 9.51289V14.5129H7.5519L7.58779 14.5124L7.51602 9.51289ZM7.84857 9.75289L12.7452 8.74131L12.744 8.73585L7.84857 9.75289ZM12.0903 30.285L16.988 29.2788L16.9869 29.2734L12.0903 30.285ZM13.1278 32.0074L16.006 36.096L21.2496 32.4047L16.3913 28.2193L13.1278 32.0074ZM19.4696 32.9279V27.9279H9.65232L15.4255 35.8683L19.4696 32.9279ZM28.1525 32.9279L32.1986 35.8655L37.9616 27.9279H28.1525V32.9279ZM31.7923 31.1718V36.1718L31.7955 36.1718L31.7923 31.1718ZM15.6918 31.1718V26.1718H15.6911L15.6918 31.1718ZM14.0557 29.9703L9.15915 30.9824L9.15918 30.9825L14.0557 29.9703ZM13.4571 27.0742V22.0742H7.31795L8.56055 28.0862L13.4571 27.0742ZM33.1392 27.0742L33.1403 22.0742H33.1392V27.0742ZM36.739 24.4312L41.6354 25.4439L41.6358 25.4421L36.739 24.4312ZM38.7593 14.6452L33.8627 13.6334L33.8625 13.6343L38.7593 14.6452ZM18.1577 34.9768H13.1577H18.1577ZM15.8298 32.9279V27.9279V32.9279ZM31.7923 32.9279V27.9279V32.9279ZM34.7753 24.1166L39.6718 25.1288L39.6719 25.128L34.7753 24.1166ZM33.1392 25.3181L33.1398 20.3181H33.1392V25.3181ZM13.0946 25.3181L8.19791 26.3293L9.02167 30.3181H13.0946V25.3181ZM11.0394 15.3667V10.3667H4.90129L6.14274 16.3779L11.0394 15.3667ZM36.5827 15.3667L41.4794 16.3781L42.7211 10.3667H36.5827V15.3667ZM42.1764 10.4898C41.5726 9.85186 40.8579 9.38046 40.1077 9.07109L36.2953 18.3159C35.8101 18.1157 35.3297 17.8035 34.9132 17.3634L42.1764 10.4898ZM40.1077 9.07109C39.3579 8.76188 38.5646 8.61055 37.7784 8.61052L37.7781 18.6105C37.2845 18.6105 36.7802 18.5158 36.2953 18.3159L40.1077 9.07109ZM37.7783 8.61052H10.6753V18.6105H37.7783V8.61052ZM15.5723 12.6012L14.7127 8.43038L4.91855 10.4491L5.7782 14.6199L15.5723 12.6012ZM14.7126 8.42993C14.3451 6.64768 13.3085 5.18108 11.9766 4.20279L6.05682 12.2623C5.56245 11.8992 5.09136 11.2871 4.91864 10.4495L14.7126 8.42993ZM11.9766 4.20279C10.6548 3.23192 9.07697 2.75627 7.52275 2.75676L7.52591 12.7568C7.06255 12.7569 6.5411 12.6181 6.05682 12.2623L11.9766 4.20279ZM7.52433 2.75676H4.52305V12.7568H7.52433V2.75676ZM4.52305 2.75676C3.1239 2.75676 1.67359 3.24019 0.514189 4.26061L7.12101 11.7673C6.3358 12.4583 5.39301 12.7568 4.52305 12.7568V2.75676ZM0.514189 4.26061C-0.665756 5.29911 -1.47461 6.85486 -1.47461 8.63482H8.52539C8.52539 9.94904 7.92676 11.0581 7.12101 11.7673L0.514189 4.26061ZM-1.47461 8.63482C-1.47461 10.4148 -0.665756 11.9705 0.514189 13.009L7.12101 5.50238C7.92676 6.21154 8.52539 7.32061 8.52539 8.63482H-1.47461ZM0.514189 13.009C1.67359 14.0295 3.1239 14.5129 4.52305 14.5129V4.51289C5.39301 4.51289 6.3358 4.8113 7.12101 5.50238L0.514189 13.009ZM4.52305 14.5129H7.51602V4.51289H4.52305V14.5129ZM7.58779 14.5124C6.64746 14.5259 5.66124 14.2507 4.80623 13.6336L10.6584 5.52482C9.68157 4.81985 8.54206 4.49764 7.44424 4.5134L7.58779 14.5124ZM4.80623 13.6336C3.94093 13.0091 3.21391 12.0253 2.9531 10.7699L12.744 8.73585C12.4549 7.34409 11.6455 6.23721 10.6584 5.52482L4.80623 13.6336ZM2.95197 10.7645L7.19367 31.2966L16.9869 29.2734L12.7452 8.74131L2.95197 10.7645ZM7.19255 31.2911C7.56484 33.1033 8.5465 34.6602 9.86438 35.7956L16.3913 28.2193C16.6283 28.4235 16.8848 28.7765 16.988 29.2788L7.19255 31.2911ZM10.2497 27.9189C8.83752 28.913 7.68778 30.3149 7.04608 32.0176L16.4036 35.5442C16.2881 35.8508 16.113 36.0207 16.006 36.096L10.2497 27.9189ZM7.04608 32.0176C6.40023 33.7314 6.32869 35.6005 6.85226 37.3639L16.4386 34.5177C16.5397 34.8579 16.5233 35.2267 16.4036 35.5442L7.04608 32.0176ZM6.85226 37.3639C7.37288 39.1174 8.43042 40.6022 9.78576 41.6899L16.0448 33.8909C16.1652 33.9875 16.3406 34.1874 16.4386 34.5177L6.85226 37.3639ZM9.78576 41.6899C11.136 42.7735 12.7471 43.4404 14.4065 43.6812L15.8429 33.7849C15.8527 33.7863 15.8733 33.7905 15.9045 33.8038C15.9356 33.8171 15.9848 33.8428 16.0448 33.8909L9.78576 41.6899ZM14.4065 43.6812C16.0658 43.9221 17.779 43.7387 19.3578 43.1308L15.7643 33.7987C15.792 33.7881 15.8096 33.7853 15.8176 33.7844C15.8256 33.7835 15.8332 33.7835 15.8429 33.7849L14.4065 43.6812ZM19.3578 43.1308C20.9377 42.5224 22.3786 41.488 23.4414 40.068L15.4355 34.0759C15.5789 33.8843 15.7156 33.8175 15.7643 33.7987L19.3578 43.1308ZM23.4414 40.068C24.5112 38.6387 25.1372 36.8925 25.1511 35.0416L15.1514 34.9664C15.1543 34.5865 15.2851 34.2769 15.4355 34.0759L23.4414 40.068ZM25.1511 35.0416C25.165 33.1904 24.5651 31.4337 23.5137 29.9876L15.4255 35.8683C15.275 35.6612 15.1485 35.3467 15.1514 34.9664L25.1511 35.0416ZM19.4696 37.9279H28.1525V27.9279H19.4696V37.9279ZM24.1065 29.9904C22.8965 31.6569 22.296 33.7223 22.5174 35.8439L32.4634 34.8058C32.5092 35.2443 32.3746 35.6231 32.1986 35.8655L24.1065 29.9904ZM22.5174 35.8439C22.7381 37.9584 23.7429 39.8347 25.2105 41.2162L32.0647 33.9347C32.2208 34.0816 32.4184 34.3743 32.4634 34.8058L22.5174 35.8439ZM25.2105 41.2162C26.6676 42.5877 28.5113 43.4168 30.4143 43.6849L31.8097 33.7828C31.8201 33.7843 31.8456 33.7892 31.8852 33.8077C31.9247 33.8262 31.9891 33.8635 32.0647 33.9347L25.2105 41.2162ZM30.4143 43.6849C32.3172 43.9531 34.2904 43.6637 36.0464 42.8165L31.7009 33.81C31.7423 33.79 31.7691 33.7846 31.7798 33.783C31.7906 33.7813 31.7993 33.7813 31.8097 33.7828L30.4143 43.6849ZM36.0464 42.8165C37.8061 41.9675 39.3307 40.5603 40.2471 38.7L31.2766 34.2808C31.4291 33.9711 31.625 33.8466 31.7009 33.81L36.0464 42.8165ZM40.2471 38.7C41.173 36.8205 41.3769 34.669 40.7834 32.6324L31.1828 35.4304C31.0664 35.0309 31.1146 34.6097 31.2766 34.2808L40.2471 38.7ZM40.7834 32.6324C40.1946 30.6121 38.8989 28.9562 37.2625 27.8396L31.6261 36.0998C31.5073 36.0187 31.2945 35.8136 31.1828 35.4304L40.7834 32.6324ZM37.2625 27.8396C35.6333 26.7279 33.7077 26.1706 31.7891 26.1718L31.7955 36.1718C31.7892 36.1718 31.7759 36.1712 31.7533 36.1644C31.7309 36.1576 31.6862 36.1408 31.6261 36.0998L37.2625 27.8396ZM31.7923 26.1718H15.6918V36.1718H31.7923V26.1718ZM15.6911 26.1718C16.3101 26.1717 16.9821 26.3587 17.5858 26.802L11.6669 34.8622C12.8686 35.7446 14.2948 36.172 15.6925 36.1718L15.6911 26.1718ZM17.5858 26.802C18.1995 27.2527 18.7512 27.9863 18.9521 28.9581L9.15918 30.9825C9.49949 32.6288 10.4551 33.9723 11.6669 34.8622L17.5858 26.802ZM18.9522 28.9583L18.3536 26.0621L8.56055 28.0862L9.15915 30.9824L18.9522 28.9583ZM13.4571 32.0742H33.1392V22.0742H13.4571V32.0742ZM33.138 32.0742C35.0031 32.0746 36.8818 31.5031 38.4424 30.3573L32.5243 22.2965C32.7692 22.1168 32.9887 22.0742 33.1403 22.0742L33.138 32.0742ZM38.4424 30.3573C40.0131 29.2042 41.2112 27.4948 41.6354 25.4439L31.8427 23.4185C31.96 22.8513 32.2694 22.4837 32.5243 22.2965L38.4424 30.3573ZM41.6358 25.4421L43.656 15.6561L33.8625 13.6343L31.8423 23.4203L41.6358 25.4421ZM43.6559 15.6569C43.8502 14.7165 43.8063 13.7478 43.5337 12.8348L33.9516 15.6952C33.7531 15.0304 33.7206 14.3213 33.8627 13.6334L43.6559 15.6569ZM43.5337 12.8348C43.2622 11.9251 42.7826 11.1314 42.179 10.4926L34.9106 17.3606C34.4934 16.9192 34.149 16.3565 33.9516 15.6952L43.5337 12.8348ZM13.1577 34.9768C13.1577 34.2398 13.4097 33.5834 13.783 33.0917L21.7477 39.1384C22.6327 37.9728 23.1577 36.5242 23.1577 34.9768H13.1577ZM13.783 33.0917C14.1487 32.61 14.5981 32.3215 15.0081 32.1721L18.4332 41.5672C19.6939 41.1076 20.8705 40.2939 21.7477 39.1384L13.783 33.0917ZM15.0081 32.1721C15.417 32.023 15.8375 31.991 16.2379 32.0611L14.5134 41.9113C15.817 42.1395 17.1736 42.0264 18.4332 41.5672L15.0081 32.1721ZM16.2379 32.0611C16.6384 32.1312 17.0823 32.3158 17.4872 32.6722L10.8804 40.1788C11.9364 41.1083 13.2098 41.6831 14.5134 41.9113L16.2379 32.0611ZM17.4872 32.6722C17.8983 33.034 18.2659 33.5763 18.4237 34.2743L8.66969 36.4787C9.00707 37.9715 9.81813 39.2439 10.8804 40.1788L17.4872 32.6722ZM18.4237 34.2743C18.5835 34.9813 18.4933 35.7054 18.2032 36.3219L9.15513 32.0636C8.51262 33.4288 8.33026 34.9768 8.66969 36.4787L18.4237 34.2743ZM18.2032 36.3219C17.9189 36.9258 17.4889 37.3375 17.0711 37.5832L12.0019 28.9633C10.8185 29.6592 9.79177 30.7109 9.15513 32.0636L18.2032 36.3219ZM17.0711 37.5832C16.6567 37.8269 16.2265 37.9279 15.8298 37.9279V27.9279C14.5124 27.9279 13.182 28.2693 12.0019 28.9633L17.0711 37.5832ZM15.8298 37.9279C15.3126 37.9279 14.7082 37.7529 14.1725 37.2814L20.7793 29.7747C19.3704 28.5347 17.5818 27.9279 15.8298 27.9279V37.9279ZM14.1725 37.2814C13.6162 36.7918 13.1577 35.9805 13.1577 34.9768H23.1577C23.1577 32.8863 22.2087 31.0328 20.7793 29.7747L14.1725 37.2814ZM29.1202 34.9768C29.1202 34.2398 29.3722 33.5834 29.7455 33.0917L37.7103 39.1384C38.5952 37.9728 39.1202 36.5242 39.1202 34.9768H29.1202ZM29.7455 33.0917C30.1112 32.61 30.5606 32.3215 30.9706 32.1721L34.3957 41.5672C35.6564 41.1076 36.833 40.2939 37.7103 39.1384L29.7455 33.0917ZM30.9706 32.1721C31.3795 32.023 31.8 31.991 32.2004 32.0611L30.476 41.9113C31.7795 42.1395 33.1361 42.0264 34.3957 41.5672L30.9706 32.1721ZM32.2004 32.0611C32.6009 32.1312 33.0448 32.3158 33.4497 32.6722L26.8429 40.1788C27.8989 41.1082 29.1723 41.6831 30.476 41.9113L32.2004 32.0611ZM33.4497 32.6722C33.8608 33.034 34.2284 33.5763 34.3862 34.2743L24.6322 36.4787C24.9696 37.9715 25.7806 39.2439 26.8429 40.1788L33.4497 32.6722ZM34.3862 34.2743C34.546 34.9813 34.4558 35.7054 34.1657 36.3219L25.1176 32.0636C24.4751 33.4288 24.2928 34.9768 24.6322 36.4787L34.3862 34.2743ZM34.1657 36.3219C33.8814 36.9258 33.4514 37.3375 33.0336 37.5832L27.9644 28.9633C26.781 29.6592 25.7543 30.7108 25.1176 32.0636L34.1657 36.3219ZM33.0336 37.5832C32.6192 37.8269 32.189 37.9279 31.7923 37.9279V27.9279C30.4749 27.9279 29.1445 28.2693 27.9644 28.9633L33.0336 37.5832ZM31.7923 37.9279C31.2751 37.9279 30.6707 37.7529 30.135 37.2814L36.7418 29.7747C35.3329 28.5347 33.5443 27.9279 31.7923 27.9279V37.9279ZM30.135 37.2814C29.5787 36.7918 29.1202 35.9805 29.1202 34.9768H39.1202C39.1202 32.8863 38.1712 31.0328 36.7418 29.7747L30.135 37.2814ZM29.8788 23.1044C30.0797 22.1325 30.6315 21.3989 31.2452 20.9482L37.1641 29.0084C38.3758 28.1186 39.3315 26.775 39.6718 25.1288L29.8788 23.1044ZM31.2452 20.9482C31.8489 20.5049 32.5209 20.318 33.1398 20.3181L33.1385 30.3181C34.5363 30.3182 35.9624 29.8908 37.1641 29.0084L31.2452 20.9482ZM33.1392 20.3181H13.0946V30.3181H33.1392V20.3181ZM17.9912 24.3068L15.9361 14.3554L6.14274 16.3779L8.19791 26.3293L17.9912 24.3068ZM11.0394 20.3667H36.5827V10.3667H11.0394V20.3667ZM31.6861 14.3552L29.8787 23.1051L39.6719 25.128L41.4794 16.3781L31.6861 14.3552Z" fill="#655030" mask="url(#path-1-inside-1_1233_383)"/>
</svg>
