<svg width="333" height="42" viewBox="0 0 333 42" fill="none" xmlns="http://www.w3.org/2000/svg">
<path d="M5.57423 40.0181C4.25423 40.0181 3.12383 39.5477 2.18303 38.6069C1.24223 37.6661 0.772635 36.5365 0.774235 35.2181V6.41812C0.774235 5.09812 1.24464 3.96772 2.18543 3.02692C3.12623 2.08612 4.25583 1.61652 5.57423 1.61812H43.9742C45.2942 1.61812 46.4246 2.08852 47.3654 3.02932C48.3062 3.97012 48.7758 5.09972 48.7742 6.41812V35.2181C48.7742 36.5381 48.3038 37.6685 47.363 38.6093C46.4222 39.5501 45.2926 40.0197 43.9742 40.0181H5.57423ZM24.7742 23.2181L43.9742 11.2181V6.41812L24.7742 18.4181L5.57423 6.41812V11.2181L24.7742 23.2181Z" fill="#655030"/>
<path d="M113.274 15.7341C112.269 15.7341 111.286 16.0323 110.45 16.5909C109.614 17.1496 108.962 17.9436 108.577 18.8726C108.192 19.8015 108.092 20.8238 108.288 21.81C108.484 22.7962 108.968 23.702 109.679 24.413C110.39 25.1241 111.296 25.6083 112.282 25.8044C113.269 26.0006 114.291 25.8999 115.22 25.5151C116.149 25.1303 116.943 24.4787 117.501 23.6426C118.06 22.8066 118.358 21.8236 118.358 20.8181C118.358 20.1505 118.227 19.4894 117.971 18.8726C117.716 18.2557 117.341 17.6953 116.869 17.2232C116.397 16.7511 115.837 16.3766 115.22 16.1211C114.603 15.8656 113.942 15.7341 113.274 15.7341ZM133.631 10.7116C133.62 9.12852 133.328 7.55989 132.77 6.07862C132.358 4.9947 131.722 4.01036 130.902 3.19055C130.082 2.37073 129.098 1.73409 128.014 1.32262C126.532 0.763916 124.964 0.4724 123.381 0.461615C120.736 0.318115 119.957 0.318115 113.274 0.318115C106.591 0.318115 105.812 0.318115 103.168 0.461615C101.585 0.4724 100.016 0.763916 98.5347 1.32262C97.4508 1.73409 96.4665 2.37073 95.6467 3.19055C94.8268 4.01036 94.1902 4.9947 93.7787 6.07862C93.22 7.55989 92.9285 9.12852 92.9177 10.7116C92.7742 13.3561 92.7742 14.1351 92.7742 20.8181C92.7742 27.5011 92.7742 28.2801 92.9177 30.9246C92.9398 32.5133 93.2309 34.0867 93.7787 35.5781C94.1884 36.6571 94.8245 37.6357 95.6442 38.4481C96.4605 39.2728 97.447 39.9095 98.5347 40.3136C100.016 40.8723 101.585 41.1638 103.168 41.1746C105.812 41.3181 106.591 41.3181 113.274 41.3181C119.957 41.3181 120.736 41.3181 123.381 41.1746C124.964 41.1638 126.532 40.8723 128.014 40.3136C129.101 39.9095 130.088 39.2728 130.904 38.4481C131.724 37.6357 132.36 36.6571 132.77 35.5781C133.328 34.0896 133.619 32.5143 133.631 30.9246C133.774 28.2801 133.774 27.5011 133.774 20.8181C133.774 14.1351 133.774 13.3561 133.631 10.7116ZM128.424 27.1116C128.358 28.3767 128.088 29.6228 127.624 30.8016C127.226 31.785 126.635 32.6783 125.885 33.4284C125.134 34.1785 124.241 34.7701 123.258 35.1681C122.068 35.606 120.815 35.8483 119.547 35.8856H107.001C105.734 35.8483 104.481 35.606 103.291 35.1681C102.274 34.7903 101.356 34.1877 100.605 33.4051C99.8624 32.6697 99.2888 31.7812 98.9242 30.8016C98.4846 29.6129 98.249 28.3584 98.2272 27.0911V14.5451C98.249 13.2779 98.4846 12.0234 98.9242 10.8346C99.302 9.81803 99.9047 8.89998 100.687 8.14912C101.426 7.41034 102.313 6.83731 103.291 6.46811C104.481 6.03025 105.734 5.78795 107.001 5.75062H119.547C120.815 5.78795 122.068 6.03025 123.258 6.46811C124.274 6.84589 125.192 7.44858 125.943 8.23112C126.686 8.96655 127.26 9.85499 127.624 10.8346C128.062 12.0246 128.304 13.2777 128.342 14.5451V20.8181C128.342 25.0411 128.485 25.4716 128.424 27.0911V27.1116ZM125.144 11.8596C124.9 11.1974 124.515 10.5961 124.016 10.0971C123.517 9.59802 122.915 9.21319 122.253 8.96911C121.344 8.65395 120.386 8.50129 119.424 8.51812H107.124C106.157 8.52757 105.199 8.70801 104.295 9.05112C103.643 9.28411 103.048 9.65323 102.55 10.1339C102.051 10.6146 101.661 11.1959 101.405 11.8391C101.107 12.7521 100.962 13.7079 100.974 14.6681V26.9681C100.995 27.9341 101.175 28.89 101.507 29.7971C101.751 30.4593 102.136 31.0606 102.635 31.5597C103.134 32.0587 103.736 32.4435 104.398 32.6876C105.272 33.0093 106.193 33.1892 107.124 33.2206H119.424C120.391 33.2112 121.349 33.0307 122.253 32.6876C122.915 32.4435 123.517 32.0587 124.016 31.5597C124.515 31.0606 124.9 30.4593 125.144 29.7971C125.487 28.8929 125.667 27.9352 125.677 26.9681V14.6681C125.677 13.7001 125.497 12.7405 125.144 11.8391V11.8596ZM113.274 28.6491C112.247 28.6491 111.229 28.4464 110.281 28.0526C109.332 27.6588 108.47 27.0817 107.744 26.3542C107.019 25.6268 106.444 24.7633 106.052 23.8134C105.661 22.8634 105.461 21.8455 105.464 20.8181C105.464 19.2684 105.924 17.7536 106.785 16.4653C107.646 15.1771 108.871 14.1734 110.303 13.5813C111.735 12.9892 113.31 12.8353 114.83 13.1391C116.35 13.4429 117.745 14.1908 118.839 15.288C119.934 16.3853 120.678 17.7826 120.978 19.303C121.278 20.8234 121.12 22.3986 120.524 23.8291C119.928 25.2597 118.921 26.4813 117.63 27.3393C116.34 28.1973 114.824 28.6532 113.274 28.6491ZM121.474 14.5246C121.021 14.4766 120.602 14.2627 120.297 13.9239C119.992 13.5851 119.823 13.1456 119.823 12.6899C119.823 12.2342 119.992 11.7946 120.297 11.4558C120.602 11.1171 121.021 10.9031 121.474 10.8551C121.927 10.9031 122.347 11.1171 122.652 11.4558C122.956 11.7946 123.125 12.2342 123.125 12.6899C123.125 13.1456 122.956 13.5851 122.652 13.9239C122.347 14.2627 121.927 14.4766 121.474 14.5246Z" fill="#655030"/>
<path d="M219.41 29.5409C219.41 37.1187 214.893 41.6362 207.315 41.6362H204.838C203.693 41.6362 202.756 40.6994 202.756 39.5544V27.5424C202.756 26.9803 203.214 26.5015 203.776 26.5015L207.44 26.439C207.731 26.4182 207.981 26.21 208.044 25.9186L208.772 21.9423C208.835 21.5676 208.543 21.2137 208.148 21.2137L203.714 21.2761C203.131 21.2761 202.673 20.8181 202.652 20.256L202.569 15.1556C202.569 14.8225 202.839 14.5311 203.193 14.5311L208.189 14.4478C208.543 14.4478 208.814 14.1772 208.814 13.8232L208.731 8.82686C208.731 8.47295 208.46 8.20234 208.106 8.20234L202.485 8.28563C199.03 8.34808 196.282 11.1793 196.344 14.6351L196.448 20.3601C196.469 20.943 196.011 21.401 195.428 21.4218L192.93 21.4635C192.576 21.4635 192.305 21.7341 192.305 22.088L192.368 26.0435C192.368 26.3974 192.638 26.668 192.992 26.668L195.49 26.6264C196.073 26.6264 196.531 27.0844 196.552 27.6465L196.74 39.5128C196.76 40.6786 195.824 41.6362 194.658 41.6362H189.87C182.292 41.6362 177.774 37.1187 177.774 29.5201V12.0953C177.774 4.51753 182.292 0 189.87 0H207.315C214.893 0 219.41 4.51753 219.41 12.0953V29.5409Z" fill="#655030"/>
<path d="M314.129 5.08759C312.26 5.90699 310.259 6.47072 308.15 6.72639C310.302 5.43536 311.947 3.39322 312.731 0.960433C310.713 2.13554 308.48 2.98669 306.106 3.46785C304.214 1.44159 301.508 0.166443 298.505 0.166443C292.748 0.166443 288.083 4.83034 288.083 10.5788C288.083 11.4062 288.183 12.2002 288.356 12.9529C279.697 12.5479 272.02 8.38741 266.887 2.10219C265.985 3.633 265.472 5.41154 265.472 7.34729C265.472 10.9695 267.315 14.1454 270.102 16.0129C268.398 15.9637 266.794 15.492 265.389 14.7155V14.841C265.389 19.8923 268.978 24.1036 273.742 25.0628C272.873 25.293 271.946 25.4264 271.004 25.4264C270.336 25.4264 269.697 25.3613 269.06 25.2438C270.401 29.3789 274.237 32.3897 278.811 32.4802C275.255 35.2671 270.748 36.9282 265.892 36.9282C265.065 36.9282 264.239 36.8885 263.41 36.7884C268.043 39.7421 273.51 41.4698 279.416 41.4698C298.578 41.4698 309.049 25.5979 309.049 11.8524C309.049 11.4141 309.049 10.9679 309.016 10.5201C311.059 9.06389 312.828 7.21866 314.226 5.12729L314.129 5.08759Z" fill="#655030"/>
</svg>
